<svg width="25" height="24" viewBox="0 0 25 24" fill="none" xmlns="http://www.w3.org/2000/svg">
<path fill-rule="evenodd" clip-rule="evenodd" d="M12.5 0.625C5.99312 0.625 0.71875 5.7175 0.71875 12C0.71875 18.2825 5.99312 23.375 12.5 23.375C19.0069 23.375 24.2812 18.2825 24.2812 12C24.2812 5.7175 19.0069 0.625 12.5 0.625ZM13.4062 5C13.4062 4.76794 13.3108 4.54538 13.1408 4.38128C12.9709 4.21719 12.7404 4.125 12.5 4.125C12.2596 4.125 12.0291 4.21719 11.8592 4.38128C11.6892 4.54538 11.5938 4.76794 11.5938 5V5.952C10.836 6.07512 10.1218 6.37821 9.51542 6.834C8.65508 7.49433 8.17175 8.409 8.17175 9.375C8.17175 10.3422 8.65508 11.2557 9.51663 11.916C10.1232 12.3827 10.8482 12.6708 11.5938 12.798V16.2723C11.1924 16.1825 10.8139 16.0155 10.4809 15.7812L9.41875 15.0112C9.32354 14.9422 9.2152 14.8921 9.09991 14.8635C8.98463 14.835 8.86465 14.8287 8.74684 14.845C8.5089 14.8778 8.29421 15.0005 8.15 15.1862C8.00579 15.3718 7.94387 15.6052 7.97786 15.8349C8.01185 16.0646 8.13897 16.2719 8.33125 16.4112L9.39338 17.1812C10.0374 17.6478 10.8059 17.9337 11.5938 18.0562V19C11.5938 19.2321 11.6892 19.4546 11.8592 19.6187C12.0291 19.7828 12.2596 19.875 12.5 19.875C12.7404 19.875 12.9709 19.7828 13.1408 19.6187C13.3108 19.4546 13.4062 19.2321 13.4062 19V18.055C14.202 17.9395 14.957 17.6397 15.6066 17.1812C16.5068 16.529 17.0312 15.6132 17.0312 14.625C17.0312 13.6368 16.5068 12.721 15.6066 12.0688C14.9572 11.6098 14.2022 11.3096 13.4062 11.1938V7.74633C13.7567 7.842 14.0817 7.99483 14.356 8.20483L14.8575 8.58983C15.0457 8.73418 15.2857 8.8004 15.5245 8.77392C15.7634 8.74745 15.9815 8.63045 16.131 8.44867C16.2805 8.26688 16.3491 8.0352 16.3217 7.8046C16.2943 7.57399 16.1731 7.36334 15.9848 7.219L15.4834 6.834C14.8773 6.3788 14.1635 6.07612 13.4062 5.95317V5Z" fill="#22BBF3"/>
</svg>
