<svg width="13" height="13" viewBox="0 0 13 13" fill="none" xmlns="http://www.w3.org/2000/svg">
<path fill-rule="evenodd" clip-rule="evenodd" d="M6.66656 0.78125C3.31803 0.78125 0.60376 3.40192 0.60376 6.63499C0.60376 9.86805 3.31803 12.4887 6.66656 12.4887C10.0151 12.4887 12.7294 9.86805 12.7294 6.63499C12.7294 3.40192 10.0151 0.78125 6.66656 0.78125ZM7.13293 3.03269C7.13293 2.91326 7.08379 2.79873 6.99633 2.71429C6.90887 2.62984 6.79025 2.5824 6.66656 2.5824C6.54287 2.5824 6.42425 2.62984 6.33679 2.71429C6.24932 2.79873 6.20019 2.91326 6.20019 3.03269V3.5226C5.81022 3.58596 5.44268 3.74193 5.13065 3.97649C4.68791 4.31631 4.43918 4.78701 4.43918 5.28412C4.43918 5.78184 4.68791 6.25194 5.13127 6.59176C5.44343 6.83191 5.81652 6.98021 6.20019 7.04565V8.83359C5.99363 8.78737 5.79885 8.7014 5.62749 8.58083L5.0809 8.18458C5.03191 8.1491 4.97615 8.12328 4.91683 8.10861C4.8575 8.09393 4.79576 8.09068 4.73513 8.09904C4.61268 8.11593 4.5022 8.17909 4.42799 8.27463C4.35377 8.37017 4.32191 8.49026 4.3394 8.60849C4.35689 8.72671 4.42231 8.83338 4.52126 8.90504L5.06784 9.30129C5.39928 9.54144 5.79476 9.68853 6.20019 9.75157V10.2373C6.20019 10.3567 6.24932 10.4712 6.33679 10.5557C6.42425 10.6401 6.54287 10.6876 6.66656 10.6876C6.79025 10.6876 6.90887 10.6401 6.99633 10.5557C7.08379 10.4712 7.13293 10.3567 7.13293 10.2373V9.75097C7.54244 9.69155 7.93097 9.53726 8.26527 9.30129C8.72853 8.96567 8.9984 8.49437 8.9984 7.98585C8.9984 7.47732 8.72853 7.00602 8.26527 6.67041C7.93105 6.43418 7.54251 6.27967 7.13293 6.22012V4.44599C7.31326 4.49522 7.48053 4.57387 7.62168 4.68194L7.87974 4.88007C7.97663 4.95435 8.10011 4.98842 8.22302 4.9748C8.34594 4.96118 8.45821 4.90097 8.53514 4.80742C8.61208 4.71387 8.64737 4.59465 8.63326 4.47597C8.61915 4.3573 8.55679 4.2489 8.4599 4.17462L8.20185 3.97649C7.88993 3.74224 7.52262 3.58648 7.13293 3.5232V3.03269Z" fill="#22BBF3"/>
</svg>
