<svg width="22" height="22" viewBox="0 0 22 22" fill="none" xmlns="http://www.w3.org/2000/svg">
<path d="M17.9765 4.31641C15.9024 4.31641 14.19 5.89347 13.9749 7.91136C15.4802 8.84523 16.4849 10.5127 16.4849 12.4107V15.1238C16.4849 16.1135 16.0388 17.0233 15.3084 17.6294V21.2732C15.3084 21.623 15.5919 21.9065 15.9417 21.9065H20.0113C20.361 21.9065 20.6445 21.623 20.6445 21.2732V14.9754C21.4323 14.7103 22.0011 13.9648 22.0011 13.0889V8.341C22.0011 6.12186 20.1956 4.31641 17.9765 4.31641Z" fill="#22BBF3"/>
<path d="M17.9767 4.31618C19.0862 4.31618 19.989 3.41347 19.989 2.30386C19.8878 -0.36209 16.0651 -0.36133 15.9644 2.3039C15.9644 3.41347 16.8671 4.31618 17.9767 4.31618Z" fill="#22BBF3"/>
<path d="M13.2061 6.37169C13.2061 5.26208 12.3034 4.35938 11.1938 4.35938C8.52782 4.46052 8.52854 8.28324 11.1938 8.38401C12.3033 8.38401 13.2061 7.4813 13.2061 6.37169Z" fill="#22BBF3"/>
<path d="M11.1938 8.38281C9.11973 8.38281 7.40727 9.95988 7.19214 11.9778C8.69744 12.9116 9.70214 14.5791 9.70214 16.4771V17.1553C9.70214 18.145 9.25613 19.0548 8.5257 19.661V21.27C8.5257 21.6197 8.80923 21.9033 9.15895 21.9033H13.2286C13.5783 21.9033 13.8618 21.6197 13.8618 21.27V17.007C14.6495 16.7419 15.2184 15.9965 15.2184 15.1205V12.4074C15.2184 10.1882 13.4129 8.38281 11.1938 8.38281Z" fill="#22BBF3"/>
<path d="M4.41107 12.457C2.18433 12.457 0.386475 14.2594 0.386475 16.4816V17.1599C0.386475 18.0358 0.955295 18.7813 1.74301 19.0464V21.2745C1.74301 21.6243 2.02653 21.9078 2.37625 21.9078H6.44588C6.7956 21.9078 7.07913 21.6243 7.07913 21.2745V19.0464C7.86684 18.7813 8.43566 18.0358 8.43566 17.1599V16.4816C8.4357 14.2552 6.63383 12.457 4.41107 12.457Z" fill="#22BBF3"/>
<path d="M4.411 12.4568C5.52057 12.4568 6.42332 11.5541 6.42332 10.4445C6.32217 7.77853 2.49945 7.77929 2.39868 10.4445C2.39872 11.5541 3.30143 12.4568 4.411 12.4568Z" fill="#22BBF3"/>
</svg>
