<svg width="13" height="12" viewBox="0 0 13 12" fill="none" xmlns="http://www.w3.org/2000/svg">
<path d="M9.93565 2.19531C8.86825 2.19531 7.98694 3.00695 7.87622 4.04545C8.65092 4.52606 9.16799 5.38422 9.16799 6.36102V7.75731C9.16799 8.26667 8.93845 8.73489 8.56254 9.04684V10.9221C8.56254 11.1021 8.70845 11.248 8.88844 11.248H10.9829C11.1628 11.248 11.3088 11.1021 11.3088 10.9221V7.68096C11.7142 7.54452 12.0069 7.16085 12.0069 6.71007V4.26656C12.0069 3.12449 11.0777 2.19531 9.93565 2.19531Z" fill="#22BBF3"/>
<path d="M9.93578 2.19341C10.5068 2.19341 10.9714 1.72884 10.9714 1.15778C10.9194 -0.21425 8.95201 -0.213859 8.90015 1.1578C8.90015 1.72884 9.36472 2.19341 9.93578 2.19341Z" fill="#22BBF3"/>
<path d="M7.48053 3.25048C7.48053 2.67942 7.01595 2.21484 6.44489 2.21484C5.07287 2.2669 5.07324 4.23425 6.44492 4.28612C7.01593 4.28612 7.48053 3.82154 7.48053 3.25048Z" fill="#22BBF3"/>
<path d="M6.44493 4.28516C5.37753 4.28516 4.49622 5.09679 4.3855 6.1353C5.1602 6.61591 5.67727 7.47406 5.67727 8.45086V8.79992C5.67727 9.30925 5.44773 9.7775 5.07182 10.0894V10.9175C5.07182 11.0975 5.21773 11.2434 5.39771 11.2434H7.49214C7.67213 11.2434 7.81804 11.0975 7.81804 10.9175V8.72359C8.22344 8.58717 8.51618 8.2035 8.51618 7.7527V6.35641C8.51618 5.21431 7.58702 4.28516 6.44493 4.28516Z" fill="#22BBF3"/>
<path d="M2.95431 6.38281C1.80832 6.38281 0.883057 7.31038 0.883057 8.45406V8.80312C0.883057 9.25392 1.1758 9.63759 1.58119 9.77401V10.9207C1.58119 11.1007 1.72711 11.2466 1.90709 11.2466H4.00152C4.1815 11.2466 4.32742 11.1007 4.32742 10.9207V9.77401C4.73281 9.63759 5.02556 9.25392 5.02556 8.80312V8.45406C5.02558 7.30825 4.09825 6.38281 2.95431 6.38281Z" fill="#22BBF3"/>
<path d="M2.95434 6.38482C3.52537 6.38482 3.98997 5.92024 3.98997 5.34918C3.93792 3.97716 1.97056 3.97755 1.9187 5.3492C1.91872 5.92024 2.3833 6.38482 2.95434 6.38482Z" fill="#22BBF3"/>
</svg>
