<svg width="40" height="40" viewBox="0 0 40 40" fill="none" xmlns="http://www.w3.org/2000/svg">
<g clip-path="url(#clip0_14933_36947)">
<path d="M14.7884 36.5871C15.6959 36.5871 16.4316 35.8514 16.4316 34.9439C16.4316 34.0364 15.6959 33.3008 14.7884 33.3008C13.8809 33.3008 13.1453 34.0364 13.1453 34.9439C13.1453 35.8514 13.8809 36.5871 14.7884 36.5871Z" stroke="white" stroke-width="3.2863" stroke-linecap="round" stroke-linejoin="round"/>
<path d="M32.8629 36.5871C33.7704 36.5871 34.506 35.8514 34.506 34.9439C34.506 34.0364 33.7704 33.3008 32.8629 33.3008C31.9554 33.3008 31.2197 34.0364 31.2197 34.9439C31.2197 35.8514 31.9554 36.5871 32.8629 36.5871Z" stroke="white" stroke-width="3.2863" stroke-linecap="round" stroke-linejoin="round"/>
<path d="M1.64307 2.08203H8.21566L12.6193 24.0838C12.7696 24.8403 13.1811 25.5199 13.7819 26.0035C14.3827 26.4871 15.1345 26.7441 15.9056 26.7293H31.877C32.6482 26.7441 33.3999 26.4871 34.0007 26.0035C34.6015 25.5199 35.0131 24.8403 35.1633 24.0838L37.7924 10.2978H9.85881" stroke="white" stroke-width="3.2863" stroke-linecap="round" stroke-linejoin="round"/>
</g>
<defs>
<clipPath id="clip0_14933_36947">
<rect width="39.4356" height="39.4356" fill="white" transform="translate(0 0.4375)"/>
</clipPath>
</defs>
</svg>
